<svg width="18" height="17" viewBox="0 0 18 17" fill="none" xmlns="http://www.w3.org/2000/svg">
<path fill-rule="evenodd" clip-rule="evenodd" d="M9.00002 16.8333C13.6024 16.8333 17.3334 13.1024 17.3334 8.50001C17.3334 3.89763 13.6024 0.166672 9.00002 0.166672C4.39765 0.166672 0.666687 3.89763 0.666687 8.50001C0.666687 13.1024 4.39765 16.8333 9.00002 16.8333ZM11.2097 7.37638C11.4538 7.1323 11.4538 6.73657 11.2097 6.4925C10.9656 6.24842 10.5699 6.24842 10.3258 6.4925L9.00001 7.81832L7.67418 6.4925C7.4301 6.24842 7.03438 6.24842 6.7903 6.4925C6.54622 6.73658 6.54622 7.1323 6.7903 7.37638L8.11612 8.70221L6.7903 10.028C6.54622 10.2721 6.54622 10.6678 6.7903 10.9119C7.03438 11.156 7.4301 11.156 7.67418 10.9119L9.00001 9.58609L10.3258 10.9119C10.5699 11.156 10.9656 11.156 11.2097 10.9119C11.4538 10.6678 11.4538 10.2721 11.2097 10.028L9.88389 8.70221L11.2097 7.37638Z" fill="#BDC8D3"/>
</svg>
