<svg width="19" height="19" viewBox="0 0 19 19" fill="none" xmlns="http://www.w3.org/2000/svg">
<path d="M6.77927 4.00194C7.1202 3.94795 7.3528 3.62779 7.2988 3.28687C7.24481 2.94594 6.92466 2.71334 6.58373 2.76733C4.53341 3.09207 2.92537 4.70011 2.60064 6.75042C2.54664 7.09135 2.77924 7.4115 3.12017 7.4655C3.4611 7.5195 3.78125 7.2869 3.83525 6.94597C4.07527 5.43051 5.26382 4.24197 6.77927 4.00194Z" fill="#363F41"/>
<path fill-rule="evenodd" clip-rule="evenodd" d="M8.16667 0.208344C3.67936 0.208344 0.0416718 3.84603 0.0416718 8.33334C0.0416718 12.8207 3.67936 16.4583 8.16667 16.4583C12.654 16.4583 16.2917 12.8207 16.2917 8.33334C16.2917 3.84603 12.654 0.208344 8.16667 0.208344ZM1.29167 8.33334C1.29167 4.53639 4.36971 1.45834 8.16667 1.45834C11.9636 1.45834 15.0417 4.53639 15.0417 8.33334C15.0417 12.1303 11.9636 15.2083 8.16667 15.2083C4.36971 15.2083 1.29167 12.1303 1.29167 8.33334Z" fill="#363F41"/>
<path d="M15.2753 14.5581C15.0313 14.3141 14.6355 14.3141 14.3915 14.5581C14.1474 14.8022 14.1474 15.1979 14.3914 15.442L17.7247 18.7753C17.9688 19.0194 18.3645 19.0194 18.6086 18.7753C18.8527 18.5312 18.8527 18.1355 18.6086 17.8914L15.2753 14.5581Z" fill="#363F41"/>
</svg>
